<svg width="50" height="48" viewBox="0 0 50 48" fill="none" xmlns="http://www.w3.org/2000/svg">
<path fill-rule="evenodd" clip-rule="evenodd" d="M13.9721 10.9391L13.925 10.8949L13.8809 10.8479C13.7289 10.6858 13.4785 10.52 12.88 10.52C12.2847 10.52 11.9826 10.6859 11.7742 10.8942C11.7537 10.9147 11.46 11.2862 11.46 12.66V35.34C11.46 36.5522 11.6888 37.0314 11.7895 37.1748C11.9939 37.3414 12.3085 37.48 12.88 37.48C13.5168 37.48 13.7821 37.3094 13.9258 37.1658C14.0045 37.0871 14.3 36.6692 14.3 35.34V12.66C14.3 11.3127 13.9969 10.9623 13.9721 10.9391ZM10.36 38.58C9.75999 37.94 9.45999 36.86 9.45999 35.34V12.66C9.45999 11.14 9.75999 10.08 10.36 9.47999C11 8.83999 11.84 8.51999 12.88 8.51999C13.92 8.51999 14.74 8.83999 15.34 9.47999C15.98 10.08 16.3 11.14 16.3 12.66V35.34C16.3 36.86 15.98 37.94 15.34 38.58C14.74 39.18 13.92 39.48 12.88 39.48C11.84 39.48 11 39.18 10.36 38.58ZM21.7735 44.1538L21.766 44.1617C19.5639 46.4662 16.4934 47.48 12.88 47.48C9.26654 47.48 6.19604 46.4662 3.994 44.1617L3.98642 44.1538L3.97893 44.1458C1.80634 41.8216 0.859985 38.6465 0.859985 34.92V13.08C0.859985 9.36102 1.80294 6.19627 3.98644 3.9062C6.18516 1.55919 9.25798 0.519989 12.88 0.519989C16.502 0.519989 19.5748 1.55918 21.7735 3.90615C23.957 6.19623 24.9 9.36099 24.9 13.08V34.92C24.9 38.6465 23.9536 41.8216 21.781 44.1458L21.7735 44.1538ZM20.32 5.27999C18.6 3.43999 16.12 2.51999 12.88 2.51999C9.63999 2.51999 7.15999 3.43999 5.43999 5.27999C3.71999 7.07999 2.85999 9.67999 2.85999 13.08V34.92C2.85999 38.32 3.71999 40.94 5.43999 42.78C7.15999 44.58 9.63999 45.48 12.88 45.48C16.12 45.48 18.6 44.58 20.32 42.78C22.04 40.94 22.9 38.32 22.9 34.92V13.08C22.9 9.67999 22.04 7.07999 20.32 5.27999ZM34.269 6.27999H36.269C37.4269 6.27999 38.2199 6.15024 38.7284 5.97227L38.7424 5.96734L38.7566 5.96262C39.3932 5.75043 39.8062 5.49617 40.0725 5.25038C40.4128 4.93625 40.6871 4.57174 40.9002 4.14556C41.1754 3.59514 41.4198 3.00313 41.6317 2.36753L42.0875 0.999986H49.969V47H39.369V14.96H34.269V6.27999ZM41.369 12.96V45H47.969V2.99999H43.529C43.289 3.71999 43.009 4.39999 42.689 5.03999C42.369 5.67999 41.949 6.23999 41.429 6.71999C40.909 7.19999 40.229 7.57999 39.389 7.85999C38.589 8.13999 37.549 8.27999 36.269 8.27999V12.96H41.369Z" fill="url(#paint0_linear_34_0)"/>
<defs>
<linearGradient id="paint0_linear_34_0" x1="30" y1="-1.52843e-05" x2="30" y2="48" gradientUnits="userSpaceOnUse">
<stop stop-color="#F2C94C"/>
<stop offset="1" stop-color="#F2C94C" stop-opacity="0.5"/>
</linearGradient>
</defs>
</svg>
