<?xml version="1.0" encoding="utf-8"?>
<!-- Generator: Adobe Illustrator 17.0.0, SVG Export Plug-In . SVG Version: 6.00 Build 0)  -->
<!DOCTYPE svg PUBLIC "-//W3C//DTD SVG 1.1//EN" "http://www.w3.org/Graphics/SVG/1.1/DTD/svg11.dtd">
<svg version="1.1" id="Layer_1" xmlns="http://www.w3.org/2000/svg" xmlns:xlink="http://www.w3.org/1999/xlink" x="0px" y="0px"
	 width="524px" height="524px" viewBox="0 0 524 524" enable-background="new 0 0 524 524" xml:space="preserve">
<rect fill="#F399C0" width="524" height="524"/>
<path fill="#F399C0" stroke="#FFFFFF" stroke-width="12" stroke-miterlimit="10" d="M262.009,358.072
	c93.847,0,169.92-43.46,169.92-97.069c0-53.614-76.072-97.069-169.92-97.069S92.09,207.389,92.09,261.003
	C92.09,314.612,168.162,358.072,262.009,358.072"/>
<g>
	<g>
		<g>
			<path fill="#F399C0" d="M261.849,358.017c93.847,0,169.92-43.46,169.92-97.069c0-53.614-76.072-97.069-169.92-97.069
				s-169.92,43.455-169.92,97.069C91.929,314.557,168.001,358.017,261.849,358.017"/>
			<path fill="#8F133D" d="M105.627,260.948c0,46.667,69.942,84.5,156.222,84.5c86.285,0,156.226-37.833,156.226-84.5
				c0-46.667-69.942-84.5-156.226-84.5C175.569,176.448,105.627,214.281,105.627,260.948 M99.653,260.948
				c0-47.537,73.149-87.052,162.195-87.052c89.052,0,162.2,39.515,162.2,87.052c0,47.537-73.149,87.052-162.2,87.052
				C172.802,348,99.653,308.485,99.653,260.948"/>
		</g>
		<g>
			<path fill="#8F133D" d="M181.919,266.071c2.752,0,4.791,0.983,4.791,7.182c0,10.721-3.652,15.208-9.748,15.208
				c-9.249,0-17.042-10.427-17.042-25.768c0-19.672,10.745-28.208,21.466-28.208c15.243,0,14.412,12.285,21.588,12.285
				c1.775,0,4.82-0.689,4.82-4.033v-5.109c0-3.148-0.391-6.296-5.309-8.951c-6.492-3.539-15.776-5.285-24.737-5.412
				c-22.229-0.313-41.901,15.526-41.901,39.427c0,24.39,18.293,37.569,41.901,37.569c8.457,0,31.537-5.397,30.691-16.416
				c-0.621-8.057-1.594-14.49-0.347-22.107c0.694-4.248-1.369-7.421-7.47-7.421h-22.439c-5.118,0-6.59,4.082-6.59,7.23
				c0,3.241,1.667,4.522,5.016,4.522H181.919z"/>
			<path fill="#8F133D" d="M307.621,231.748c0-5.778,1.046-6.912-6.306-6.458c-7.895,0.489-11.337,16.186-19.432,18.416
				c-3.016,0.831-5.206,2.879-5.206,5.827c0,3.965,2.263,4.982,8.154,4.982h1.017v33.189c0,8.042,3.676,10.99,12.06,10.99h14.749
				c6.795,0,9.235-2.039,9.235-5.666c0-2.718-1.633-5.211-8.203-5.211c-4.532,0-6.003-0.904-6.003-7.587v-25.714h5.651
				c5.891,0,7.538-1.472,7.538-5.436c0-3.965-1.647-5.436-7.538-5.436h-5.715V231.748z"/>
			<path fill="#8F133D" d="M352.372,253.141c0,0-24.57,33.712-25.729,35.609c-2.283,3.74-1.335,9.944,5.896,9.944h36.953
				c4.703,0,6.194-0.69,7.225-4.014c0.802-2.527,1.838-8.262,1.838-10.784c0-2.41-1.726-3.789-4.018-3.789
				c-6.077,0-1.3,7.651-12.432,7.651h-10.12c1.765-2.332,23.744-33.458,23.656-33.385c1.97-2.796,2.039-3.852,2.083-5.152
				c0.196-5.671-4.639-5.666-11.64-5.666h-32.27c-6.424,0-8.145,2.596-8.145,11.659c0,2.87,1.491,4.933,4.473,4.933
				c6.081,0,3.08-7.006,14.206-7.006H352.372z"/>
			<path fill="#8F133D" d="M234.56,237.819c5.211,0,8.262-3.837,8.262-7.475c0-3.642-3.05-7.475-8.262-7.475
				c-5.211,0-8.262,3.833-8.262,7.475C226.298,233.982,229.349,237.819,234.56,237.819"/>
			<path fill="#8F133D" d="M257.776,237.819c5.211,0,8.262-3.837,8.262-7.475c0-3.642-3.05-7.475-8.262-7.475
				c-5.211,0-8.262,3.833-8.262,7.475C249.514,233.982,252.565,237.819,257.776,237.819"/>
			<path fill="#8F133D" d="M279.135,271.307c-0.108-18.391-17.237-28.369-32.969-28.369s-32.857,9.978-32.964,28.369
				c0.024,4.405,1.027,8.33,2.752,11.743v0.005c5.48,10.853,18.249,16.622,30.212,16.622c11.963,0,24.732-5.769,30.212-16.622
				C278.103,279.637,279.105,275.711,279.135,271.307 M256.266,271.307c0,5.099-0.763,8.961-2.044,11.743v0.005
				c-1.843,4.019-4.771,5.793-8.056,5.793s-6.213-1.774-8.056-5.798h-0.005c-1.276-2.787-2.034-6.648-2.034-11.743
				c0-12.446,4.532-17.54,10.095-17.54C251.734,253.767,256.266,258.86,256.266,271.307"/>
			<path fill="#FFFFFF" d="M180.976,264.184c2.752,0,4.791,0.983,4.791,7.182c0,10.721-3.652,15.204-9.753,15.204
				c-9.244,0-17.037-10.423-17.037-25.763c0-19.672,10.745-28.208,21.466-28.208c15.243,0,14.412,12.285,21.588,12.285
				c1.77,0,4.82-0.689,4.82-4.033v-5.109c0-3.148-0.391-6.296-5.309-8.951c-6.492-3.539-15.776-5.285-24.737-5.412
				c-22.229-0.313-41.901,15.521-41.901,39.427c0,24.39,18.293,37.574,41.901,37.574c8.457,0,31.537-5.402,30.691-16.421
				c-0.621-8.057-1.594-14.49-0.347-22.107c0.694-4.248-1.374-7.421-7.47-7.421h-22.439c-5.118,0-6.59,4.082-6.59,7.226
				c0,3.246,1.667,4.527,5.016,4.527H180.976z"/>
			<path fill="#FFFFFF" d="M306.677,229.861c0-5.778,1.046-6.912-6.306-6.458c-7.895,0.489-11.332,16.186-19.432,18.416
				c-3.016,0.831-5.206,2.879-5.206,5.827c0,3.965,2.263,4.982,8.154,4.982h1.017v33.189c0,8.042,3.676,10.99,12.06,10.99h14.749
				c6.795,0,9.235-2.039,9.235-5.666c0-2.718-1.633-5.211-8.203-5.211c-4.532,0-6.003-0.904-6.003-7.587v-25.714h5.651
				c5.891,0,7.538-1.472,7.538-5.436c0-3.965-1.647-5.436-7.538-5.436h-5.715V229.861z"/>
			<path fill="#FFFFFF" d="M351.428,251.253c0,0-24.57,33.712-25.729,35.609c-2.283,3.74-1.335,9.943,5.896,9.943h36.953
				c4.703,0,6.194-0.69,7.225-4.014c0.802-2.527,1.833-8.262,1.833-10.784c0-2.41-1.721-3.789-4.014-3.789
				c-6.077,0-1.3,7.651-12.432,7.651h-10.12c1.765-2.332,23.744-33.458,23.656-33.385c1.97-2.796,2.039-3.852,2.083-5.152
				c0.196-5.671-4.639-5.666-11.64-5.666h-32.27c-6.424,0-8.145,2.596-8.145,11.659c0,2.865,1.491,4.933,4.473,4.933
				c6.081,0,3.08-7.006,14.206-7.006H351.428z"/>
			<path fill="#FFFFFF" d="M233.617,235.932c5.211,0,8.262-3.837,8.262-7.475c0-3.642-3.05-7.475-8.262-7.475
				c-5.211,0-8.262,3.833-8.262,7.475C225.355,232.095,228.405,235.932,233.617,235.932"/>
			<path fill="#FFFFFF" d="M256.833,235.932c5.211,0,8.262-3.837,8.262-7.475c0-3.642-3.051-7.475-8.262-7.475
				c-5.211,0-8.262,3.833-8.262,7.475C248.571,232.095,251.621,235.932,256.833,235.932"/>
			<path fill="#FFFFFF" d="M278.191,269.419c-0.108-18.391-17.232-28.369-32.969-28.369c-15.732,0-32.857,9.978-32.964,28.369
				c0.024,4.405,1.027,8.33,2.752,11.743v0.005c5.48,10.853,18.249,16.622,30.212,16.622c11.963,0,24.732-5.769,30.212-16.622
				C277.16,277.75,278.167,273.824,278.191,269.419 M255.322,269.419c0,5.099-0.758,8.961-2.039,11.743v0.005
				c-1.848,4.019-4.771,5.793-8.061,5.793c-3.285,0-6.209-1.774-8.056-5.798c-1.281-2.787-2.039-6.648-2.039-11.743
				c0-12.446,4.532-17.54,10.095-17.54C250.79,251.879,255.322,256.973,255.322,269.419"/>
		</g>
	</g>
</g>
</svg>
